<?xml version="1.0" encoding="UTF-8"?>
<svg height="20.0" width="519.204081632653" xmlns="http://www.w3.org/2000/svg">
 <g>
  <rect x="10.0" y="-215.0" width="10.204081632653061" height="225.0" style="fill:cyan;opacity:0.3;"/>
  <text x="10.0" y="10.0" transform="matrix(6.123233995736766E-17,-1.0,1.0,6.123233995736766E-17,0.0,20.0)" style="font-size:1.0000000000000013px;">C</text>
  <rect x="20.0" y="-94.0" width="10.204081632653061" height="104.0" style="fill:cyan;opacity:0.3;"/>
  <text x="20.0" y="10.0" transform="matrix(6.123233995736766E-17,-1.0,1.0,6.123233995736766E-17,9.999999999999998,30.0)" style="font-size:1.0000000000000013px;">quantum chemist</text>
  <rect x="30.0" y="-89.0" width="10.204081632653061" height="99.0" style="fill:cyan;opacity:0.3;"/>
  <text x="30.0" y="10.0" transform="matrix(6.123233995736766E-17,-1.0,1.0,6.123233995736766E-17,20.0,40.0)" style="font-size:1.0000000000000013px;">Gaussian</text>
  <rect x="40.0" y="-84.0" width="10.204081632653061" height="94.0" style="fill:cyan;opacity:0.3;"/>
  <text x="40.0" y="10.0" transform="matrix(6.123233995736766E-17,-1.0,1.0,6.123233995736766E-17,30.0,50.0)" style="font-size:1.0000000000000013px;">DFT</text>
  <rect x="50.0" y="-41.0" width="10.204081632653061" height="51.0" style="fill:cyan;opacity:0.3;"/>
  <text x="50.0" y="10.0" transform="matrix(6.123233995736766E-17,-1.0,1.0,6.123233995736766E-17,40.0,60.0)" style="font-size:1.0000000000000013px;">software</text>
  <rect x="61.0" y="-36.0" width="10.204081632653061" height="46.0" style="fill:cyan;opacity:0.3;"/>
  <text x="61.0" y="10.0" transform="matrix(6.123233995736766E-17,-1.0,1.0,6.123233995736766E-17,51.0,71.0)" style="font-size:1.0000000000000013px;">density functio</text>
  <rect x="71.0" y="-34.0" width="10.204081632653061" height="44.0" style="fill:cyan;opacity:0.3;"/>
  <text x="71.0" y="10.0" transform="matrix(6.123233995736766E-17,-1.0,1.0,6.123233995736766E-17,61.0,81.0)" style="font-size:1.0000000000000013px;">HF</text>
  <rect x="81.0" y="-13.0" width="10.204081632653061" height="23.0" style="fill:cyan;opacity:0.3;"/>
  <text x="81.0" y="10.0" transform="matrix(6.123233995736766E-17,-1.0,1.0,6.123233995736766E-17,71.0,91.0)" style="font-size:1.0000000000000013px;">computational c</text>
  <rect x="91.0" y="-11.0" width="10.204081632653061" height="21.0" style="fill:cyan;opacity:0.3;"/>
  <text x="91.0" y="10.0" transform="matrix(6.123233995736766E-17,-1.0,1.0,6.123233995736766E-17,81.0,101.0)" style="font-size:1.0000000000000013px;">Dalton</text>
  <rect x="101.0" y="-10.0" width="10.204081632653061" height="20.0" style="fill:cyan;opacity:0.3;"/>
  <text x="101.0" y="10.0" transform="matrix(6.123233995736766E-17,-1.0,1.0,6.123233995736766E-17,91.0,111.0)" style="font-size:1.0000000000000013px;">Hartree–Fock</text>
  <rect x="112.0" y="-10.0" width="10.204081632653061" height="20.0" style="fill:cyan;opacity:0.3;"/>
  <text x="112.0" y="10.0" transform="matrix(6.123233995736766E-17,-1.0,1.0,6.123233995736766E-17,102.0,122.0)" style="font-size:1.0000000000000013px;">Python</text>
  <rect x="122.0" y="-10.0" width="10.204081632653061" height="20.0" style="fill:cyan;opacity:0.3;"/>
  <text x="122.0" y="10.0" transform="matrix(6.123233995736766E-17,-1.0,1.0,6.123233995736766E-17,112.0,132.0)" style="font-size:1.0000000000000013px;">quantum chemist</text>
  <rect x="132.0" y="-7.0" width="10.204081632653061" height="17.0" style="fill:cyan;opacity:0.3;"/>
  <text x="132.0" y="10.0" transform="matrix(6.123233995736766E-17,-1.0,1.0,6.123233995736766E-17,121.99999999999999,142.0)" style="font-size:1.0000000000000013px;">Schrödinger</text>
  <rect x="142.0" y="-6.0" width="10.204081632653061" height="16.0" style="fill:cyan;opacity:0.3;"/>
  <text x="142.0" y="10.0" transform="matrix(6.123233995736766E-17,-1.0,1.0,6.123233995736766E-17,132.0,152.0)" style="font-size:1.0000000000000013px;">Basis</text>
  <rect x="152.0" y="-2.0" width="10.204081632653061" height="12.0" style="fill:cyan;opacity:0.3;"/>
  <text x="152.0" y="10.0" transform="matrix(6.123233995736766E-17,-1.0,1.0,6.123233995736766E-17,142.0,162.0)" style="font-size:1.0000000000000013px;">quantum chemist</text>
  <rect x="163.0" y="1.0" width="10.204081632653061" height="9.0" style="fill:cyan;opacity:0.3;"/>
  <text x="163.0" y="10.0" transform="matrix(6.123233995736766E-17,-1.0,1.0,6.123233995736766E-17,153.0,173.0)" style="font-size:1.0000000000000013px;">ORCA</text>
  <rect x="173.0" y="1.0" width="10.204081632653061" height="9.0" style="fill:cyan;opacity:0.3;"/>
  <text x="173.0" y="10.0" transform="matrix(6.123233995736766E-17,-1.0,1.0,6.123233995736766E-17,163.0,183.0)" style="font-size:1.0000000000000013px;">open source</text>
  <rect x="183.0" y="3.0" width="10.204081632653061" height="7.0" style="fill:cyan;opacity:0.3;"/>
  <text x="183.0" y="10.0" transform="matrix(6.123233995736766E-17,-1.0,1.0,6.123233995736766E-17,173.0,193.0)" style="font-size:1.0000000000000013px;">density functio</text>
  <rect x="193.0" y="4.0" width="10.204081632653061" height="6.0" style="fill:cyan;opacity:0.3;"/>
  <text x="193.0" y="10.0" transform="matrix(6.123233995736766E-17,-1.0,1.0,6.123233995736766E-17,183.0,203.0)" style="font-size:1.0000000000000013px;">ADF</text>
  <rect x="203.0" y="4.0" width="10.204081632653061" height="6.0" style="fill:cyan;opacity:0.3;"/>
  <text x="203.0" y="10.0" transform="matrix(6.123233995736766E-17,-1.0,1.0,6.123233995736766E-17,193.0,213.0)" style="font-size:1.0000000000000013px;">Fortran</text>
  <rect x="214.0" y="4.0" width="10.204081632653061" height="6.0" style="fill:cyan;opacity:0.3;"/>
  <text x="214.0" y="10.0" transform="matrix(6.123233995736766E-17,-1.0,1.0,6.123233995736766E-17,204.0,224.0)" style="font-size:1.0000000000000013px;">molecular mecha</text>
  <rect x="224.0" y="4.0" width="10.204081632653061" height="6.0" style="fill:cyan;opacity:0.3;"/>
  <text x="224.0" y="10.0" transform="matrix(6.123233995736766E-17,-1.0,1.0,6.123233995736766E-17,214.0,234.0)" style="font-size:1.0000000000000013px;">MOPAC</text>
  <rect x="234.0" y="5.0" width="10.204081632653061" height="5.0" style="fill:cyan;opacity:0.3;"/>
  <text x="234.0" y="10.0" transform="matrix(6.123233995736766E-17,-1.0,1.0,6.123233995736766E-17,224.0,244.0)" style="font-size:1.0000000000000013px;">MOLPRO</text>
  <rect x="244.0" y="5.0" width="10.204081632653061" height="5.0" style="fill:cyan;opacity:0.3;"/>
  <text x="244.0" y="10.0" transform="matrix(6.123233995736766E-17,-1.0,1.0,6.123233995736766E-17,234.0,254.0)" style="font-size:1.0000000000000013px;">computational c</text>
  <rect x="254.0" y="6.0" width="10.204081632653061" height="4.0" style="fill:cyan;opacity:0.3;"/>
  <text x="254.0" y="10.0" transform="matrix(6.123233995736766E-17,-1.0,1.0,6.123233995736766E-17,243.99999999999997,264.0)" style="font-size:1.0000000000000013px;">computational c</text>
  <rect x="265.0" y="6.0" width="10.204081632653061" height="4.0" style="fill:cyan;opacity:0.3;"/>
  <text x="265.0" y="10.0" transform="matrix(6.123233995736766E-17,-1.0,1.0,6.123233995736766E-17,254.99999999999997,275.0)" style="font-size:1.0000000000000013px;">Java</text>
  <rect x="275.0" y="7.0" width="10.204081632653061" height="3.0" style="fill:cyan;opacity:0.3;"/>
  <text x="275.0" y="10.0" transform="matrix(6.123233995736766E-17,-1.0,1.0,6.123233995736766E-17,265.0,285.0)" style="font-size:1.0000000000000013px;">BSD</text>
  <rect x="285.0" y="7.0" width="10.204081632653061" height="3.0" style="fill:cyan;opacity:0.3;"/>
  <text x="285.0" y="10.0" transform="matrix(6.123233995736766E-17,-1.0,1.0,6.123233995736766E-17,275.0,295.0)" style="font-size:1.0000000000000013px;">NWChem</text>
  <rect x="295.0" y="7.0" width="10.204081632653061" height="3.0" style="fill:cyan;opacity:0.3;"/>
  <text x="295.0" y="10.0" transform="matrix(6.123233995736766E-17,-1.0,1.0,6.123233995736766E-17,285.0,305.0)" style="font-size:1.0000000000000013px;">MIT</text>
  <rect x="305.0" y="7.0" width="10.204081632653061" height="3.0" style="fill:cyan;opacity:0.3;"/>
  <text x="305.0" y="10.0" transform="matrix(6.123233995736766E-17,-1.0,1.0,6.123233995736766E-17,295.0,315.0)" style="font-size:1.0000000000000013px;">Q-Chem</text>
  <rect x="316.0" y="7.0" width="10.204081632653061" height="3.0" style="fill:cyan;opacity:0.3;"/>
  <text x="316.0" y="10.0" transform="matrix(6.123233995736766E-17,-1.0,1.0,6.123233995736766E-17,306.0,326.0)" style="font-size:1.0000000000000013px;">Language</text>
  <rect x="326.0" y="8.0" width="10.204081632653061" height="2.0" style="fill:cyan;opacity:0.3;"/>
  <text x="326.0" y="10.0" transform="matrix(6.123233995736766E-17,-1.0,1.0,6.123233995736766E-17,316.0,336.0)" style="font-size:1.0000000000000013px;">PW</text>
  <rect x="336.0" y="8.0" width="10.204081632653061" height="2.0" style="fill:cyan;opacity:0.3;"/>
  <text x="336.0" y="10.0" transform="matrix(6.123233995736766E-17,-1.0,1.0,6.123233995736766E-17,326.0,346.0)" style="font-size:1.0000000000000013px;">CASTEP</text>
  <rect x="346.0" y="8.0" width="10.204081632653061" height="2.0" style="fill:cyan;opacity:0.3;"/>
  <text x="346.0" y="10.0" transform="matrix(6.123233995736766E-17,-1.0,1.0,6.123233995736766E-17,336.0,356.0)" style="font-size:1.0000000000000013px;">VASP</text>
  <rect x="356.0" y="8.0" width="10.204081632653061" height="2.0" style="fill:cyan;opacity:0.3;"/>
  <text x="356.0" y="10.0" transform="matrix(6.123233995736766E-17,-1.0,1.0,6.123233995736766E-17,346.0,366.0)" style="font-size:1.0000000000000013px;">C++</text>
  <rect x="367.0" y="8.0" width="10.204081632653061" height="2.0" style="fill:cyan;opacity:0.3;"/>
  <text x="367.0" y="10.0" transform="matrix(6.123233995736766E-17,-1.0,1.0,6.123233995736766E-17,357.0,377.0)" style="font-size:1.0000000000000013px;">MOLCAS</text>
  <rect x="377.0" y="9.0" width="10.204081632653061" height="1.0" style="fill:cyan;opacity:0.3;"/>
  <text x="377.0" y="10.0" transform="matrix(6.123233995736766E-17,-1.0,1.0,6.123233995736766E-17,367.0,387.0)" style="font-size:1.0000000000000013px;">open source,</text>
  <rect x="387.0" y="9.0" width="10.204081632653061" height="1.0" style="fill:cyan;opacity:0.3;"/>
  <text x="387.0" y="10.0" transform="matrix(6.123233995736766E-17,-1.0,1.0,6.123233995736766E-17,377.0,397.0)" style="font-size:1.0000000000000013px;">open source.</text>
  <rect x="397.0" y="9.0" width="10.204081632653061" height="1.0" style="fill:cyan;opacity:0.3;"/>
  <text x="397.0" y="10.0" transform="matrix(6.123233995736766E-17,-1.0,1.0,6.123233995736766E-17,387.0,407.0)" style="font-size:1.0000000000000013px;">GPU</text>
  <rect x="407.0" y="9.0" width="10.204081632653061" height="1.0" style="fill:cyan;opacity:0.3;"/>
  <text x="407.0" y="10.0" transform="matrix(6.123233995736766E-17,-1.0,1.0,6.123233995736766E-17,397.0,417.0)" style="font-size:1.0000000000000013px;">TURBOMOLE</text>
  <rect x="418.0" y="9.0" width="10.204081632653061" height="1.0" style="fill:cyan;opacity:0.3;"/>
  <text x="418.0" y="10.0" transform="matrix(6.123233995736766E-17,-1.0,1.0,6.123233995736766E-17,408.0,428.0)" style="font-size:1.0000000000000013px;">density functio</text>
  <rect x="428.0" y="9.0" width="10.204081632653061" height="1.0" style="fill:cyan;opacity:0.3;"/>
  <text x="428.0" y="10.0" transform="matrix(6.123233995736766E-17,-1.0,1.0,6.123233995736766E-17,418.0,438.0)" style="font-size:1.0000000000000013px;">molecular mecha</text>
  <rect x="438.0" y="9.0" width="10.204081632653061" height="1.0" style="fill:cyan;opacity:0.3;"/>
  <text x="438.0" y="10.0" transform="matrix(6.123233995736766E-17,-1.0,1.0,6.123233995736766E-17,428.0,448.0)" style="font-size:1.0000000000000013px;">Assembly</text>
  <rect x="448.0" y="9.0" width="10.204081632653061" height="1.0" style="fill:cyan;opacity:0.3;"/>
  <text x="448.0" y="10.0" transform="matrix(6.123233995736766E-17,-1.0,1.0,6.123233995736766E-17,438.0,458.0)" style="font-size:1.0000000000000013px;">Spartan</text>
  <rect x="458.0" y="9.0" width="10.204081632653061" height="1.0" style="fill:cyan;opacity:0.3;"/>
  <text x="458.0" y="10.0" transform="matrix(6.123233995736766E-17,-1.0,1.0,6.123233995736766E-17,448.0,468.0)" style="font-size:1.0000000000000013px;">CRYSTAL</text>
  <rect x="469.0" y="9.0" width="10.204081632653061" height="1.0" style="fill:cyan;opacity:0.3;"/>
  <text x="469.0" y="10.0" transform="matrix(6.123233995736766E-17,-1.0,1.0,6.123233995736766E-17,459.0,479.0)" style="font-size:1.0000000000000013px;">Jaguar</text>
  <rect x="479.0" y="9.0" width="10.204081632653061" height="1.0" style="fill:cyan;opacity:0.3;"/>
  <text x="479.0" y="10.0" transform="matrix(6.123233995736766E-17,-1.0,1.0,6.123233995736766E-17,468.99999999999994,489.0)" style="font-size:1.0000000000000013px;">CFOUR</text>
  <rect x="489.0" y="9.0" width="10.204081632653061" height="1.0" style="fill:cyan;opacity:0.3;"/>
  <text x="489.0" y="10.0" transform="matrix(6.123233995736766E-17,-1.0,1.0,6.123233995736766E-17,478.99999999999994,499.0)" style="font-size:1.0000000000000013px;">ACES</text>
  <rect x="499.0" y="9.0" width="10.204081632653061" height="1.0" style="fill:cyan;opacity:0.3;"/>
  <text x="499.0" y="10.0" transform="matrix(6.123233995736766E-17,-1.0,1.0,6.123233995736766E-17,488.99999999999994,509.0)" style="font-size:1.0000000000000013px;">post-Hartree–Fo</text>
 </g>
</svg>
